<svg width="35" height="27" viewBox="0 0 35 27" fill="none" xmlns="http://www.w3.org/2000/svg">
<path d="M0 26.2498H6.90863V0H0V26.2498ZM1.10711 1.65982H5.79983V2.33138H1.10711V1.65982ZM1.10711 3.27157H5.79983V3.94313H1.10711V3.27157ZM1.10711 23.9206H5.79983V24.5924H1.10711V23.9206Z" fill="white"/>
<path d="M8.26129 0V26.2496H15.1706V3.51966V0H8.26129ZM14.0614 24.5924H9.36695V23.9206H14.0614V24.5924ZM14.0614 3.94337H9.36695V3.27181H14.0614V3.94337ZM14.0614 2.33138H9.36695V1.65982H14.0614V2.33138Z" fill="white"/>
<path d="M21.1505 0.0650635L15.1705 3.52119L28.2925 26.2514L34.2754 22.796L21.1505 0.0650635ZM16.9561 4.40074L21.0208 2.05366L21.358 2.63995L17.2922 4.98558L16.9561 4.40074ZM21.8274 3.44896L22.1636 4.03259L18.0997 6.37822L21.8274 3.44896ZM28.0874 23.6804L32.1535 21.3342L32.4895 21.9186L28.4234 24.2633L28.0874 23.6804Z" fill="white"/>
</svg>
