<svg width="31" height="33" viewBox="0 0 31 33" fill="none" xmlns="http://www.w3.org/2000/svg">
<path fill-rule="evenodd" clip-rule="evenodd" d="M19.6702 1.73988C19.5237 1.48638 19.3148 1.27452 19.0634 1.12442C18.812 0.974319 18.5264 0.890946 18.2337 0.882213C17.941 0.873481 17.651 0.939678 17.3911 1.07452C17.1312 1.20937 16.91 1.40839 16.7486 1.65271L8.50123 14.1412L2.90107 17.3744C1.71698 18.058 0.85295 19.1841 0.499072 20.5048C0.145194 21.8254 0.330452 23.2326 1.01409 24.4167C1.69773 25.6008 2.82375 26.4648 4.14444 26.8187C5.46513 27.1726 6.8723 26.9873 8.0564 26.3037L8.4731 26.0631L15.6764 32.4528C15.9463 32.6922 16.2847 32.8407 16.6437 32.877C17.0026 32.9134 17.3639 32.8358 17.6764 32.6553L19.1646 31.7961C19.5593 31.5682 19.8473 31.1929 19.9653 30.7526C20.0832 30.3124 20.0215 29.8434 19.7936 29.4487L16.0285 22.9273L28.5956 22.1722C28.8878 22.1546 29.1708 22.0626 29.4175 21.9049C29.6642 21.7473 29.8666 21.5292 30.0054 21.2713C30.1441 21.0135 30.2147 20.7245 30.2105 20.4317C30.2062 20.1389 30.1271 19.8521 29.9809 19.5985L19.6702 1.73988Z" fill="white"/>
</svg>
