<svg width="26" height="31" viewBox="0 0 26 31" fill="none" xmlns="http://www.w3.org/2000/svg">
<path d="M23.6647 3.50903H22.7582V25.7786C22.7582 27.258 21.5539 28.4623 20.0745 28.4623H10.8902H3.58679V29.2878C3.58679 30.2331 4.35404 31.0003 5.29934 31.0003H14.4804H23.6614C24.6067 31.0003 25.3739 30.2331 25.3739 29.2878V5.22158C25.374 4.27628 24.61 3.50903 23.6647 3.50903Z" fill="white"/>
<path d="M10.8903 27.4913H20.0714C21.0167 27.4913 21.7839 26.7241 21.7839 25.7788V3.50926V1.71254C21.7839 0.767245 21.0167 0 20.0714 0H10.8903H7.83755V0.566531C7.844 0.624803 7.84727 0.686312 7.84727 0.747821V4.48045V5.4387C7.84727 6.76924 6.766 7.8505 5.43546 7.8505H4.47721H0.744584C0.696024 7.8505 0.644227 7.84727 0.595667 7.84403H0V25.7788C0 26.7241 0.767245 27.4913 1.71254 27.4913H3.59019H10.8903ZM11.2367 21.6706H5.25094C4.80418 21.6706 4.44161 21.308 4.44161 20.8613C4.44161 20.4145 4.80418 20.052 5.25094 20.052H11.24C11.6867 20.052 12.0493 20.4145 12.0493 20.8613C12.0493 21.308 11.6835 21.6706 11.2367 21.6706ZM17.2258 17.5398H5.25094C4.80418 17.5398 4.44161 17.1772 4.44161 16.7305C4.44161 16.2837 4.80418 15.9212 5.25094 15.9212H17.2258C17.6725 15.9212 18.0351 16.2837 18.0351 16.7305C18.0351 17.1772 17.6725 17.5398 17.2258 17.5398ZM5.25094 11.5346H17.2258C17.6725 11.5346 18.0351 11.8972 18.0351 12.3439C18.0351 12.7907 17.6725 13.1532 17.2258 13.1532H5.25094C4.80418 13.1532 4.44161 12.7907 4.44161 12.3439C4.44161 11.8972 4.80418 11.5346 5.25094 11.5346Z" fill="white"/>
<path d="M0.744668 6.87929H5.43555C5.43878 6.87929 5.44526 6.87929 5.44849 6.87929C6.23193 6.87281 6.86644 6.2383 6.87292 5.45487C6.87292 5.45163 6.87292 5.44515 6.87292 5.44192V0.747802C6.87292 0.314001 6.51681 0.0258789 6.14779 0.0258789C5.96974 0.0258789 5.79168 0.0906253 5.64277 0.239542L0.233171 5.64911C-0.220054 6.10233 0.100441 6.87929 0.744668 6.87929Z" fill="white"/>
</svg>
