<svg width="28" height="28" viewBox="0 0 28 28" fill="none" xmlns="http://www.w3.org/2000/svg">
<path d="M18.9575 27.9975H9.04202C8.61041 27.9975 8.24295 27.6826 8.17762 27.2556L7.01109 19.6732C6.9726 19.4212 7.04492 19.1634 7.21174 18.9697C7.37855 18.7761 7.62002 18.6653 7.87549 18.6653H20.1241C20.3795 18.6653 20.6222 18.7773 20.7878 18.9709C20.9535 19.1646 21.0269 19.4212 20.9884 19.6743L19.8219 27.2568C19.7566 27.6826 19.3891 27.9975 18.9575 27.9975Z" fill="white"/>
<path d="M14 9.33224C16.577 9.33224 18.6661 7.24314 18.6661 4.66612C18.6661 2.08909 16.577 0 14 0C11.423 0 9.33386 2.08909 9.33386 4.66612C9.33386 7.24314 11.423 9.33224 14 9.33224Z" fill="white"/>
<path d="M27.0848 15.1649C26.8993 12.5787 25.5088 10.1849 23.3309 8.73727C23.3251 7.77605 22.5446 6.99915 21.5823 6.99915C20.6164 6.99915 19.8325 7.78305 19.8325 8.74894C19.8325 9.71483 20.6164 10.4987 21.5823 10.4987C21.9019 10.4987 22.197 10.4066 22.4548 10.2573C24.0961 11.3876 25.1565 13.1993 25.335 15.1649H23.2621C22.8421 12.5285 20.5557 10.4987 17.791 10.4987H10.2086C7.44392 10.4987 5.15752 12.5285 4.73757 15.1649H0.876357C0.25693 15.1649 -0.14319 15.7924 0.0481211 16.343L2.38118 22.759C2.5095 23.0973 2.83613 23.3306 3.20942 23.3306H5.21585L4.70257 20.0293C4.56259 19.0961 4.83089 18.1628 5.43749 17.4513C5.95776 16.8272 6.87815 16.3314 7.87554 16.3314H20.1241C21.0048 16.3314 21.8937 16.6942 22.5621 17.4513C23.1687 18.1628 23.437 19.0961 23.2971 20.0293L22.7838 23.3306H24.7902C25.1635 23.3306 25.4901 23.0973 25.6185 22.759L27.9515 16.343C28.1358 15.8123 27.7835 15.1649 27.0848 15.1649Z" fill="white"/>
</svg>
