<svg width="90" height="37" viewBox="0 0 90 37" fill="none" xmlns="http://www.w3.org/2000/svg">
<path d="M50.6829 11.3279C50.0473 11.8204 49.4117 12.313 48.8232 12.8993C48.2817 12.3599 47.6461 11.9143 46.9164 11.5625C46.3749 12.055 45.81 12.6413 45.2685 13.2276C44.8919 13.04 44.5152 12.9227 44.1386 12.7351C41.9493 14.9397 39.9954 17.4492 38.3005 20.1933C36.6998 22.7966 35.3109 25.7282 34.1103 28.871C36.8645 25.3764 40.2308 23.5705 44.115 23.4767C49.6471 23.2891 53.6254 22.2102 56.0266 20.1933C58.1923 18.3405 59.0162 15.7137 58.569 12.2895C58.1452 10.1318 57.4625 8.56044 56.4974 7.48159C56.4032 7.38778 55.8147 6.89526 54.8025 5.95713L58.31 8.37282C60.8524 6.61382 63.842 5.4177 67.2319 4.69065C65.3957 2.29842 62.6886 0.727051 59.2752 0C54.4258 1.8059 50.1885 4.17468 46.6103 7.12979C46.0218 7.62231 45.4804 8.16174 44.9154 8.65425C45.4569 8.79497 45.9747 8.88879 46.4456 9.05296C47.0341 8.51353 47.6697 8.02102 48.3523 7.5754C48.6584 7.62231 48.8938 7.76303 49.1527 7.83339C49.3646 7.9272 49.5294 7.97411 49.7412 8.06792C50.0473 8.20864 50.3768 8.37282 50.7064 8.56044C50.0237 9.00605 49.3881 9.49857 48.7996 9.94418C49.4587 10.3194 50.0943 10.7885 50.6829 11.3279Z" fill="white"/>
<path d="M43.2911 10.3196C42.7732 10.9059 42.2318 11.4453 41.7374 12.0786C39.9248 14.4239 38.2299 17.0741 36.841 20.17C35.6169 22.7733 34.5105 25.7049 33.5924 28.918C34.9107 25.6815 36.3467 22.7733 37.8533 20.17C39.6188 17.2148 41.5256 14.6819 43.6442 12.5242C43.3853 12.4773 43.1263 12.3835 42.8909 12.2897C43.4324 11.7033 44.068 11.117 44.6329 10.6245C44.1857 10.5072 43.7619 10.4134 43.2911 10.3196Z" fill="white"/>
<path d="M35.4757 31.9669C35.3815 31.7323 35.2638 31.5212 35.0519 31.3805C34.5811 30.888 34.0868 30.6066 33.4512 30.6066C33.0745 30.6066 32.6508 30.7473 32.3212 30.9115C31.9916 31.146 31.6856 31.4509 31.4738 31.8027C31.2619 32.1545 31.1677 32.5766 31.1677 32.9753C31.1677 33.6555 31.3796 34.2418 31.8504 34.7343C32.2741 35.18 32.8156 35.4145 33.4512 35.4145C34.0868 35.4145 34.5811 35.18 35.0519 34.7812C35.4286 34.3356 35.6404 33.89 35.6875 33.2568C35.6875 33.163 35.6875 33.0223 35.6875 32.9519C35.6875 32.6001 35.6169 32.2952 35.4757 31.9669Z" fill="white"/>
<path d="M67.5379 30.1372V31.3568H68.6443V36.5869H69.8213V31.3333H70.9277V30.1138H67.5379V30.1372Z" fill="white"/>
<path d="M60.3345 32.3418V30.1372H59.1575V36.5869H60.3345V33.6787L62.1942 36.5869H63.536L61.2055 32.9985L63.3242 30.1138H61.9823L60.3345 32.3418Z" fill="white"/>
<path d="M76.7894 30.3954C76.3185 30.7003 75.8948 31.1224 75.6594 31.6149C75.3534 32.1544 75.2357 32.7407 75.2357 33.3739C75.2357 34.2652 75.5417 35.086 76.1302 35.7427C76.7658 36.376 77.472 36.7278 78.4137 36.7278C79.3082 36.7278 80.0144 36.4229 80.6029 35.7896C81.2385 35.1095 81.521 34.3121 81.521 33.3739C81.521 32.4358 81.215 31.6149 80.6029 30.9583C79.9673 30.2781 79.2611 29.9732 78.4137 29.9732C77.8487 29.9498 77.2602 30.0905 76.7894 30.3954ZM76.3892 33.3739C76.3892 32.7407 76.601 32.2013 76.9777 31.8026C77.3543 31.4039 77.8251 31.1693 78.4137 31.1693C78.9315 31.1693 79.3788 31.4039 79.8025 31.8495C80.1792 32.2482 80.3911 32.7876 80.3911 33.3739C80.3911 33.9603 80.1792 34.4997 79.8025 34.9453C79.4259 35.344 78.9551 35.5785 78.4137 35.5785C77.8958 35.5785 77.4956 35.3909 77.1425 35.086C76.6246 34.617 76.3892 34.0775 76.3892 33.3739Z" fill="white"/>
<path d="M44.4446 30.2778C44.1386 30.184 43.7619 30.1371 43.2205 30.1371H42.2553V36.5867H43.9503C44.4681 36.5867 44.8448 36.4929 45.1273 36.3522C45.3862 36.1646 45.6452 35.9535 45.7629 35.6251C45.9747 35.3672 46.0689 34.9919 46.0689 34.687C46.0689 34.2883 45.9747 33.96 45.81 33.702C45.6452 33.444 45.3391 33.2095 45.0096 32.9749C45.2214 32.7873 45.3391 32.6231 45.4804 32.4355C45.5746 32.2479 45.6452 32.0368 45.6452 31.7554C45.6452 31.3567 45.5275 31.0283 45.3156 30.7703C45.0802 30.5358 44.7742 30.3482 44.4446 30.2778ZM43.6442 32.6466H43.4324V31.3097H43.7384C43.9973 31.3097 44.2092 31.4036 44.2798 31.4974C44.4446 31.6381 44.4917 31.7554 44.4917 31.943C44.4917 32.1775 44.4446 32.3417 44.2798 32.4824C44.1386 32.5528 43.9267 32.6466 43.6442 32.6466ZM43.4324 33.7254H43.6442C44.068 33.7254 44.4446 33.8192 44.6094 33.9834C44.8213 34.1241 44.9154 34.3352 44.9154 34.6167C44.9154 34.8746 44.8213 35.1092 44.6565 35.203C44.4917 35.3437 44.1857 35.3906 43.6913 35.3906H43.4324V33.7254Z" fill="white"/>
<path d="M50.9418 30.1374V36.587H54.2375V35.3674H52.0717V33.6554H54.2375V32.4827H52.0717V31.2631H54.2375V30.0905H50.9418V30.1374Z" fill="white"/>
<path d="M89.7602 30.9346C89.5954 30.6532 89.3836 30.4421 89.0775 30.3014C88.7715 30.1607 88.3242 30.1138 87.6416 30.1138H86.4174V36.5869H87.5474V33.7959C88.1359 33.7959 88.5596 33.7959 88.7715 33.7021C89.1482 33.6083 89.4542 33.3972 89.6661 33.0689C89.8779 32.7874 89.9956 32.3887 89.9956 31.9431C90.0192 31.6148 89.9485 31.263 89.7602 30.9346ZM87.5709 32.6467V31.3099H87.9005C88.2301 31.3099 88.489 31.4037 88.6067 31.4506C88.8186 31.5913 88.8657 31.7555 88.8657 31.99C88.8657 32.1777 88.8657 32.2949 88.8186 32.3418C88.7244 32.4826 88.6067 32.5764 88.5126 32.5764C88.3949 32.6233 88.183 32.6702 87.924 32.6702H87.5709V32.6467Z" fill="white"/>
<path d="M5.8616 33.3741C5.8616 32.3422 5.55558 31.4979 4.89644 30.9115C4.26084 30.2783 3.50755 29.9734 2.66009 29.9734C2.14219 29.9734 1.69492 30.0672 1.22411 30.3252C0.706217 30.5597 0.329568 30.8646 0 31.2633L0.80038 32.0607C1.31827 31.4275 1.97741 31.1695 2.66009 31.1695C3.17798 31.1695 3.62525 31.3102 3.97836 31.662C4.40209 31.9669 4.61395 32.3891 4.70812 32.8347H2.35406V33.9604H4.70812C4.54333 34.5468 4.28439 34.9455 3.90774 35.18C3.53109 35.438 3.10736 35.5787 2.68363 35.5787C2.00095 35.5787 1.41243 35.2738 0.82392 34.6406L0.0706217 35.4849C0.541433 36.0243 0.988704 36.3292 1.38889 36.4699C1.81262 36.6576 2.23635 36.7514 2.70717 36.7514C3.67233 36.7514 4.44917 36.4465 5.03768 35.8132C5.57912 35.1097 5.8616 34.3122 5.8616 33.3741Z" fill="white"/>
<path d="M14.9953 30.1371H13.5594L11.9586 32.3417V30.1371H10.7816V36.5867H11.9586V33.6785L13.8183 36.5867H15.2072L12.8296 32.9984L14.9953 30.1371Z" fill="white"/>
<path d="M24.8824 30.9346C24.2939 30.2545 23.5406 29.9496 22.6931 29.9496C22.1517 29.9496 21.5632 30.0903 21.0924 30.3952C20.6215 30.7001 20.1978 31.1222 19.9153 31.6148C19.6564 32.1542 19.5387 32.7405 19.5387 33.3738C19.5387 34.265 19.8447 35.0859 20.4332 35.7425C21.0688 36.3758 21.775 36.7276 22.7167 36.7276C23.6112 36.7276 24.3174 36.4227 24.953 35.7895C25.5415 35.1093 25.8476 34.3119 25.8476 33.3738C25.8005 32.4122 25.518 31.6148 24.8824 30.9346ZM22.646 31.1692C23.2346 31.1692 23.6583 31.4037 24.082 31.8493C24.5057 32.248 24.6705 32.7874 24.6705 33.3738C24.6705 33.9601 24.5057 34.4995 24.082 34.9451C23.7054 35.3438 23.2346 35.5784 22.6931 35.5784C22.1752 35.5784 21.775 35.3907 21.3748 35.0859C20.904 34.6402 20.6922 34.1008 20.6922 33.3738C20.6922 32.7405 20.857 32.2011 21.2336 31.8024C21.6338 31.3802 22.1046 31.1692 22.646 31.1692Z" fill="white"/>
</svg>
