<svg width="352" height="352" viewBox="0 0 352 352" fill="none" xmlns="http://www.w3.org/2000/svg">
<g filter="url(#filter0_d_1448_241)">
<circle cx="176" cy="176" r="126" fill="#2E2A2B"/>
</g>
<circle cx="174.568" cy="177.436" r="90.2046" fill="#231F20"/>
<path d="M175.268 166.864V177.367L184.46 172.115L175.268 166.864Z" fill="white"/>
<path d="M214.643 139.664H202.559C201.606 136.979 199.04 135.05 196.032 135.05C193.024 135.05 190.458 136.979 189.505 139.664H165.645C164.692 136.979 162.126 135.05 159.118 135.05C156.11 135.05 153.544 136.979 152.591 139.664H140.507C139.233 139.664 138.2 140.697 138.2 141.971V146.74C138.2 148.014 139.233 149.047 140.507 149.047H214.643C215.917 149.047 216.95 148.014 216.95 146.74V141.971C216.95 140.697 215.917 139.664 214.643 139.664Z" fill="white"/>
<path d="M142.968 192.882C142.968 194.156 144.001 195.189 145.275 195.189H175.268V200.382C172.588 201.338 170.654 203.875 170.654 206.879C170.654 210.695 173.759 213.8 177.575 213.8C181.391 213.8 184.496 210.695 184.496 206.879C184.496 203.875 182.562 201.338 179.882 200.382V195.189H209.875C211.149 195.189 212.182 194.156 212.182 192.882V153.661H142.968V192.882ZM170.654 162.889C170.654 162.067 171.091 161.308 171.803 160.893C172.515 160.483 173.393 160.477 174.105 160.886L190.255 170.115C190.974 170.525 191.418 171.291 191.418 172.118C191.418 172.945 190.974 173.711 190.255 174.121L174.105 183.35C173.397 183.755 172.519 183.757 171.802 183.342C171.091 182.928 170.654 182.169 170.654 181.346V162.889Z" fill="white"/>
<defs>
<filter id="filter0_d_1448_241" x="0" y="0" width="352" height="352" filterUnits="userSpaceOnUse" color-interpolation-filters="sRGB">
<feFlood flood-opacity="0" result="BackgroundImageFix"/>
<feColorMatrix in="SourceAlpha" type="matrix" values="0 0 0 0 0 0 0 0 0 0 0 0 0 0 0 0 0 0 127 0" result="hardAlpha"/>
<feOffset/>
<feGaussianBlur stdDeviation="25"/>
<feColorMatrix type="matrix" values="0 0 0 0 1 0 0 0 0 1 0 0 0 0 1 0 0 0 0.15 0"/>
<feBlend mode="normal" in2="BackgroundImageFix" result="effect1_dropShadow_1448_241"/>
<feBlend mode="normal" in="SourceGraphic" in2="effect1_dropShadow_1448_241" result="shape"/>
</filter>
</defs>
</svg>
