<svg width="400" height="400" viewBox="0 0 400 400" fill="none" xmlns="http://www.w3.org/2000/svg">
<g filter="url(#filter0_d_1185_746)">
<circle cx="200" cy="200" r="150" fill="#2F82FF"/>
</g>
<circle cx="198.295" cy="201.707" r="107.386" fill="#1E66D0"/>
<path d="M197.03 195.25C195.418 196.478 193.806 197.707 192.313 199.169C190.94 197.824 189.328 196.712 187.478 195.835C186.104 197.063 184.672 198.526 183.299 199.988C182.343 199.52 181.388 199.227 180.433 198.76C174.881 204.258 169.925 210.516 165.627 217.359C161.567 223.851 158.045 231.162 155 239C161.985 230.285 170.522 225.781 180.373 225.548C194.403 225.08 204.493 222.389 210.582 217.359C216.075 212.738 218.164 206.188 217.03 197.648C215.955 192.267 214.224 188.348 211.776 185.658C211.537 185.424 210.045 184.196 207.478 181.856L216.373 187.881C222.821 183.494 230.403 180.511 239 178.698C234.343 172.732 227.478 168.813 218.821 167C206.522 171.504 195.776 177.411 186.701 184.781C185.209 186.009 183.836 187.354 182.403 188.582C183.776 188.933 185.09 189.167 186.284 189.577C187.776 188.232 189.388 187.003 191.119 185.892C191.896 186.009 192.493 186.36 193.149 186.535C193.687 186.769 194.104 186.886 194.642 187.12C195.418 187.471 196.254 187.881 197.09 188.348C195.358 189.46 193.746 190.688 192.254 191.799C193.925 192.735 195.537 193.905 197.03 195.25Z" fill="white"/>
<defs>
<filter id="filter0_d_1185_746" x="0" y="0" width="400" height="400" filterUnits="userSpaceOnUse" color-interpolation-filters="sRGB">
<feFlood flood-opacity="0" result="BackgroundImageFix"/>
<feColorMatrix in="SourceAlpha" type="matrix" values="0 0 0 0 0 0 0 0 0 0 0 0 0 0 0 0 0 0 127 0" result="hardAlpha"/>
<feOffset/>
<feGaussianBlur stdDeviation="25"/>
<feColorMatrix type="matrix" values="0 0 0 0 1 0 0 0 0 1 0 0 0 0 1 0 0 0 0.55 0"/>
<feBlend mode="normal" in2="BackgroundImageFix" result="effect1_dropShadow_1185_746"/>
<feBlend mode="normal" in="SourceGraphic" in2="effect1_dropShadow_1185_746" result="shape"/>
</filter>
</defs>
</svg>
