<svg width="400" height="400" viewBox="0 0 400 400" fill="none" xmlns="http://www.w3.org/2000/svg">
<g filter="url(#filter0_d_1181_1006)">
<circle cx="200" cy="200" r="150" fill="#4C7589"/>
</g>
<circle cx="198.295" cy="201.709" r="107.386" fill="#35596B"/>
<path d="M228.994 165.527H226.274V232.336C226.274 236.774 222.662 240.387 218.223 240.387H190.67H168.76V242.863C168.76 245.699 171.062 248.001 173.898 248.001H201.441H228.984C231.82 248.001 234.122 245.699 234.122 242.863V170.665C234.122 167.829 231.83 165.527 228.994 165.527Z" fill="white"/>
<path d="M190.671 237.474H218.214C221.05 237.474 223.352 235.172 223.352 232.336V165.528V160.138C223.352 157.302 221.05 155 218.214 155H190.671H181.513V156.699C181.532 156.874 181.542 157.059 181.542 157.243V168.441V171.316C181.542 175.308 178.298 178.551 174.307 178.551H171.432H160.234C160.088 178.551 159.933 178.542 159.787 178.532H158V232.336C158 235.172 160.302 237.474 163.138 237.474H168.771H190.671ZM191.71 220.012H173.753C172.413 220.012 171.325 218.924 171.325 217.584C171.325 216.243 172.413 215.156 173.753 215.156H191.72C193.06 215.156 194.148 216.243 194.148 217.584C194.148 218.924 193.051 220.012 191.71 220.012ZM209.677 207.619H173.753C172.413 207.619 171.325 206.532 171.325 205.191C171.325 203.851 172.413 202.763 173.753 202.763H209.677C211.018 202.763 212.105 203.851 212.105 205.191C212.105 206.532 211.018 207.619 209.677 207.619ZM173.753 189.604H209.677C211.018 189.604 212.105 190.691 212.105 192.032C212.105 193.372 211.018 194.46 209.677 194.46H173.753C172.413 194.46 171.325 193.372 171.325 192.032C171.325 190.691 172.413 189.604 173.753 189.604Z" fill="white"/>
<path d="M160.234 175.638H174.307C174.316 175.638 174.336 175.638 174.345 175.638C176.696 175.619 178.599 173.715 178.619 171.365C178.619 171.355 178.619 171.336 178.619 171.326V157.244C178.619 155.942 177.55 155.078 176.443 155.078C175.909 155.078 175.375 155.272 174.928 155.719L158.699 171.947C157.34 173.307 158.301 175.638 160.234 175.638Z" fill="white"/>
<defs>
<filter id="filter0_d_1181_1006" x="0" y="0" width="400" height="400" filterUnits="userSpaceOnUse" color-interpolation-filters="sRGB">
<feFlood flood-opacity="0" result="BackgroundImageFix"/>
<feColorMatrix in="SourceAlpha" type="matrix" values="0 0 0 0 0 0 0 0 0 0 0 0 0 0 0 0 0 0 127 0" result="hardAlpha"/>
<feOffset/>
<feGaussianBlur stdDeviation="25"/>
<feColorMatrix type="matrix" values="0 0 0 0 1 0 0 0 0 1 0 0 0 0 1 0 0 0 0.55 0"/>
<feBlend mode="normal" in2="BackgroundImageFix" result="effect1_dropShadow_1181_1006"/>
<feBlend mode="normal" in="SourceGraphic" in2="effect1_dropShadow_1181_1006" result="shape"/>
</filter>
</defs>
</svg>
