<svg width="400" height="400" viewBox="0 0 400 400" fill="none" xmlns="http://www.w3.org/2000/svg">
<g filter="url(#filter0_d_1185_727)">
<circle cx="200" cy="200" r="150" fill="#43C0B3"/>
</g>
<circle cx="198.295" cy="201.707" r="107.386" fill="#178F83"/>
<path d="M165.811 162.5C165.808 162.5 165.805 162.5 165.803 162.5C164.903 162.5 164.056 162.851 163.417 163.489C162.77 164.134 162.414 164.992 162.414 165.906V216.98C162.414 218.853 163.944 220.38 165.824 220.385C173.752 220.404 187.035 222.057 196.199 231.646V178.195C196.199 177.561 196.036 176.964 195.73 176.471C188.21 164.359 173.757 162.519 165.811 162.5Z" fill="white"/>
<path d="M235.27 216.98V165.906C235.27 164.992 234.913 164.134 234.267 163.489C233.628 162.851 232.78 162.5 231.881 162.5C231.878 162.5 231.875 162.5 231.873 162.5C223.927 162.519 209.474 164.359 201.953 176.471C201.647 176.964 201.485 177.561 201.485 178.196V231.646C210.649 222.057 223.931 220.404 231.86 220.385C233.74 220.38 235.27 218.853 235.27 216.98Z" fill="white"/>
<path d="M243.028 174.277H240.558V216.979C240.558 221.761 236.662 225.66 231.873 225.672C225.148 225.688 214.06 227.003 206.207 234.435C219.789 231.11 234.106 233.272 242.265 235.131C243.284 235.363 244.337 235.124 245.153 234.473C245.967 233.824 246.433 232.854 246.433 231.813V177.683C246.434 175.805 244.906 174.277 243.028 174.277Z" fill="white"/>
<path d="M157.125 216.979V174.277H154.655C152.778 174.277 151.25 175.805 151.25 177.683V231.812C151.25 232.853 151.717 233.823 152.53 234.472C153.346 235.122 154.397 235.363 155.418 235.13C163.577 233.27 177.895 231.109 191.476 234.434C183.623 227.002 172.535 225.688 165.811 225.672C161.022 225.66 157.125 221.761 157.125 216.979Z" fill="white"/>
<defs>
<filter id="filter0_d_1185_727" x="0" y="0" width="400" height="400" filterUnits="userSpaceOnUse" color-interpolation-filters="sRGB">
<feFlood flood-opacity="0" result="BackgroundImageFix"/>
<feColorMatrix in="SourceAlpha" type="matrix" values="0 0 0 0 0 0 0 0 0 0 0 0 0 0 0 0 0 0 127 0" result="hardAlpha"/>
<feOffset/>
<feGaussianBlur stdDeviation="25"/>
<feColorMatrix type="matrix" values="0 0 0 0 1 0 0 0 0 1 0 0 0 0 1 0 0 0 0.55 0"/>
<feBlend mode="normal" in2="BackgroundImageFix" result="effect1_dropShadow_1185_727"/>
<feBlend mode="normal" in="SourceGraphic" in2="effect1_dropShadow_1185_727" result="shape"/>
</filter>
</defs>
</svg>
