<svg width="400" height="400" viewBox="0 0 400 400" fill="none" xmlns="http://www.w3.org/2000/svg">
<g filter="url(#filter0_d_1185_757)">
<circle cx="200" cy="200" r="150" fill="#5D609F"/>
</g>
<circle cx="198.295" cy="201.707" r="107.386" fill="#363A88"/>
<path d="M222.974 236H169.591C167.906 236 166.54 234.634 166.54 232.95V223.918C166.54 219.616 169.079 215.702 173.007 213.948C184.433 208.847 183.807 209.019 184.697 209.019H188.323C189.727 209.019 190.949 209.977 191.285 211.341C192.564 216.537 200 216.54 201.28 211.341C201.615 209.977 202.838 209.019 204.242 209.019C208.144 209.019 208.344 208.942 209.111 209.284L219.557 213.948C223.486 215.702 226.024 219.616 226.024 223.918V232.95C226.024 234.634 224.658 236 222.974 236ZM196.357 164C186.082 164 177.724 172.359 177.724 182.633C177.724 192.907 186.082 201.266 196.357 201.266C206.631 201.266 214.99 192.907 214.99 182.633C214.99 172.359 206.631 164 196.357 164ZM166.963 183.93C160.494 183.93 155.231 189.193 155.231 195.662C155.231 202.132 160.494 207.395 166.963 207.395C173.432 207.395 178.695 202.132 178.695 195.662C178.695 189.193 173.432 183.93 166.963 183.93ZM225.601 183.93C219.132 183.93 213.869 189.193 213.869 195.662C213.869 202.132 219.132 207.395 225.601 207.395C232.07 207.395 237.333 202.132 237.333 195.662C237.333 189.193 232.07 183.93 225.601 183.93ZM239.16 211.876C232.813 209.041 232.965 209.012 232.096 209.012C227.553 209.012 224.58 208.98 222.569 208.97C220.571 208.961 219.909 211.641 221.68 212.567C223.13 213.326 224.01 213.972 225.056 215.113C228.107 218.427 228.391 221.934 228.39 224.842C228.39 225.895 229.243 226.747 230.296 226.747H240.514C242.199 226.747 243.564 225.38 243.564 223.697V218.665C243.564 215.735 241.835 213.071 239.16 211.876ZM160.468 209.012C159.603 209.012 159.773 209.031 153.404 211.876C150.729 213.071 149 215.735 149 218.665V223.696C149 225.38 150.365 226.747 152.05 226.747H162.267C163.321 226.747 164.175 225.893 164.173 224.84C164.17 221.922 164.446 218.44 167.509 215.113C168.549 213.978 169.437 213.325 170.855 212.58C172.622 211.652 171.969 208.979 169.973 208.983C167.95 208.986 164.978 209.012 160.468 209.012Z" fill="white"/>
<defs>
<filter id="filter0_d_1185_757" x="0" y="0" width="400" height="400" filterUnits="userSpaceOnUse" color-interpolation-filters="sRGB">
<feFlood flood-opacity="0" result="BackgroundImageFix"/>
<feColorMatrix in="SourceAlpha" type="matrix" values="0 0 0 0 0 0 0 0 0 0 0 0 0 0 0 0 0 0 127 0" result="hardAlpha"/>
<feOffset/>
<feGaussianBlur stdDeviation="25"/>
<feColorMatrix type="matrix" values="0 0 0 0 1 0 0 0 0 1 0 0 0 0 1 0 0 0 0.55 0"/>
<feBlend mode="normal" in2="BackgroundImageFix" result="effect1_dropShadow_1185_757"/>
<feBlend mode="normal" in="SourceGraphic" in2="effect1_dropShadow_1185_757" result="shape"/>
</filter>
</defs>
</svg>
