<svg width="400" height="400" viewBox="0 0 400 400" fill="none" xmlns="http://www.w3.org/2000/svg">
<g filter="url(#filter0_d_1185_772)">
<circle cx="200" cy="200" r="150" fill="#9F5D70"/>
</g>
<circle cx="198.294" cy="201.708" r="107.386" fill="#84394E"/>
<path d="M164.327 186.172H151.9C150.299 186.172 149 187.471 149 189.073V220.139C149 221.741 150.299 223.039 151.9 223.039H164.327C165.929 223.039 167.227 221.741 167.227 220.139V189.073C167.227 187.471 165.929 186.172 164.327 186.172Z" fill="white"/>
<path d="M218.694 219.727C220.296 219.727 221.595 218.429 221.595 216.827V210.408H221.801C223.403 210.408 224.701 209.109 224.701 207.507C224.701 205.905 223.403 204.607 221.801 204.607H221.595V188.867C221.595 187.694 220.888 186.637 219.805 186.188C218.721 185.739 217.474 185.987 216.644 186.816C216.644 186.816 207.588 195.869 203.295 200.159C201.367 202.098 200.261 204.776 200.261 207.507C200.261 209.109 201.559 210.408 203.161 210.408H215.794V216.827C215.794 218.429 217.092 219.727 218.694 219.727ZM207.087 204.607C207.186 204.485 207.291 204.367 207.402 204.256C209.574 202.085 212.971 198.689 215.794 195.868V204.607H207.087Z" fill="white"/>
<path d="M195.186 216.827C195.186 215.225 193.888 213.927 192.286 213.927H180.679C180.778 213.804 180.882 213.687 180.993 213.576C185.28 209.291 194.336 200.238 194.336 200.238C194.881 199.694 195.186 198.956 195.186 198.187V196.634C195.186 190.752 190.401 185.967 184.52 185.967C178.582 185.967 173.853 190.776 173.853 196.631V196.634C173.853 198.235 175.151 199.533 176.753 199.533C178.355 199.533 179.653 198.232 179.653 196.631C179.653 193.97 181.796 191.768 184.52 191.768C187.203 191.768 189.386 193.951 189.386 196.634V196.985C187.034 199.336 180.382 205.986 176.887 209.479C174.958 211.418 173.853 214.096 173.853 216.827C173.853 218.429 175.151 219.727 176.753 219.727H192.286C193.888 219.727 195.186 218.429 195.186 216.827Z" fill="white"/>
<path d="M198.501 157.801C213.059 157.801 225.325 167.799 228.793 181.289C229.963 180.704 231.28 180.372 232.675 180.372H234.541C230.615 164.114 215.948 152 198.501 152C181.055 152 166.387 164.114 162.462 180.372H164.328C165.723 180.372 167.04 180.704 168.21 181.289C171.678 167.799 183.944 157.801 198.501 157.801Z" fill="white"/>
<path d="M228.225 227.616C225.325 234.299 218.663 238.987 210.926 238.987H207.137C205.923 235.38 202.511 232.774 198.5 232.774C193.474 232.774 189.386 236.862 189.386 241.887C189.386 246.913 193.474 251.001 198.499 251.001C202.511 251.001 205.923 248.395 207.137 244.788H210.926C221.454 244.788 230.461 238.151 233.985 228.842H232.672C231.048 228.842 229.527 228.393 228.225 227.616Z" fill="white"/>
<path d="M245.099 186.172H232.672C231.07 186.172 229.771 187.471 229.771 189.073V220.139C229.771 221.741 231.07 223.039 232.672 223.039H245.099C246.7 223.039 247.999 221.741 247.999 220.139V189.073C247.999 187.471 246.7 186.172 245.099 186.172Z" fill="white"/>
<defs>
<filter id="filter0_d_1185_772" x="0" y="0" width="400" height="400" filterUnits="userSpaceOnUse" color-interpolation-filters="sRGB">
<feFlood flood-opacity="0" result="BackgroundImageFix"/>
<feColorMatrix in="SourceAlpha" type="matrix" values="0 0 0 0 0 0 0 0 0 0 0 0 0 0 0 0 0 0 127 0" result="hardAlpha"/>
<feOffset/>
<feGaussianBlur stdDeviation="25"/>
<feColorMatrix type="matrix" values="0 0 0 0 1 0 0 0 0 1 0 0 0 0 1 0 0 0 0.55 0"/>
<feBlend mode="normal" in2="BackgroundImageFix" result="effect1_dropShadow_1185_772"/>
<feBlend mode="normal" in="SourceGraphic" in2="effect1_dropShadow_1185_772" result="shape"/>
</filter>
</defs>
</svg>
