<svg width="98" height="41" viewBox="0 0 98 41" fill="none" xmlns="http://www.w3.org/2000/svg">
<path d="M55.188 12.3349C54.4959 12.8712 53.8038 13.4075 53.163 14.0459C52.5734 13.4585 51.8814 12.9733 51.0867 12.5902C50.4972 13.1265 49.882 13.765 49.2924 14.4034C48.8823 14.1991 48.4722 14.0714 48.062 13.8671C45.6781 16.2677 43.5506 19.0003 41.705 21.9882C39.962 24.8229 38.4496 28.0152 37.1423 31.4373C40.1414 27.6321 43.8069 25.6657 48.0364 25.5635C54.0602 25.3592 58.3922 24.1845 61.0067 21.9882C63.365 19.9707 64.2621 17.1105 63.7751 13.3819C63.3137 11.0324 62.5703 9.32137 61.5194 8.14662C61.4169 8.04447 60.776 7.50817 59.6738 6.48665L63.4931 9.11707C66.2615 7.20172 69.5169 5.89928 73.2081 5.1076C71.2087 2.50272 68.2609 0.791678 64.5441 0C59.2637 1.96643 54.6497 4.54576 50.7535 7.76355C50.1127 8.29985 49.5231 8.88722 48.9079 9.42352C49.4975 9.57675 50.0614 9.6789 50.5741 9.85767C51.2149 9.27029 51.907 8.734 52.6503 8.24877C52.9836 8.29985 53.2399 8.45308 53.5219 8.52969C53.7526 8.63184 53.932 8.68292 54.1627 8.78507C54.4959 8.9383 54.8548 9.11707 55.2136 9.32137C54.4703 9.80659 53.7782 10.3429 53.1374 10.8281C53.8551 11.2367 54.5472 11.7475 55.188 12.3349Z" fill="white"/>
<path d="M47.1392 11.2367C46.5753 11.8752 45.9857 12.4625 45.4474 13.1521C43.4737 15.7059 41.6281 18.5917 40.1157 21.9627C38.7828 24.7974 37.5781 27.9896 36.5784 31.4884C38.0138 27.9641 39.5774 24.7974 41.218 21.9627C43.1404 18.7449 45.2167 15.9868 47.5237 13.6373C47.2417 13.5862 46.9598 13.4841 46.7034 13.3819C47.293 12.7435 47.9851 12.105 48.6003 11.5687C48.1133 11.441 47.6519 11.3389 47.1392 11.2367Z" fill="white"/>
<path d="M38.6291 34.8083C38.5266 34.5529 38.3984 34.3231 38.1677 34.1698C37.655 33.6335 37.1167 33.3271 36.4246 33.3271C36.0145 33.3271 35.5531 33.4803 35.1943 33.6591C34.8354 33.9145 34.5022 34.2465 34.2715 34.6295C34.0408 35.0126 33.9382 35.4723 33.9382 35.9064C33.9382 36.647 34.1689 37.2855 34.6816 37.8218C35.143 38.307 35.7326 38.5624 36.4246 38.5624C37.1167 38.5624 37.655 38.307 38.1677 37.8729C38.5778 37.3876 38.8085 36.9024 38.8598 36.2129C38.8598 36.1107 38.8598 35.9575 38.8598 35.8809C38.8598 35.4978 38.7829 35.1658 38.6291 34.8083Z" fill="white"/>
<path d="M73.5413 32.8163V34.1443H74.746V39.8393H76.0277V34.1188H77.2324V32.7908H73.5413V32.8163Z" fill="white"/>
<path d="M65.6975 35.2169V32.8163H64.4159V39.8393H65.6975V36.6726L67.7226 39.8393H69.1836L66.646 35.932L68.9529 32.7908H67.4919L65.6975 35.2169Z" fill="white"/>
<path d="M83.6151 33.0973C83.1025 33.4293 82.6411 33.8889 82.3847 34.4252C82.0515 35.0126 81.9233 35.6511 81.9233 36.3406C81.9233 37.311 82.2566 38.2049 82.8974 38.9199C83.5895 39.6095 84.3585 39.9925 85.3838 39.9925C86.3579 39.9925 87.1269 39.6605 87.7677 38.971C88.4598 38.2304 88.7674 37.3621 88.7674 36.3406C88.7674 35.3191 88.4341 34.4252 87.7677 33.7102C87.0756 32.9696 86.3066 32.6376 85.3838 32.6376C84.7686 32.612 84.1278 32.7653 83.6151 33.0973ZM83.1794 36.3406C83.1794 35.6511 83.4101 35.0637 83.8202 34.6295C84.2303 34.1954 84.743 33.94 85.3838 33.94C85.9477 33.94 86.4348 34.1954 86.8962 34.6806C87.3063 35.1148 87.537 35.7021 87.537 36.3406C87.537 36.979 87.3063 37.5664 86.8962 38.0516C86.486 38.4858 85.9734 38.7412 85.3838 38.7412C84.8199 38.7412 84.3841 38.5369 83.9996 38.2049C83.4357 37.6941 83.1794 37.1067 83.1794 36.3406Z" fill="white"/>
<path d="M48.3952 32.9696C48.062 32.8674 47.6519 32.8163 47.0623 32.8163H46.0114V39.8393H47.8569C48.4209 39.8393 48.831 39.7371 49.1386 39.5839C49.4205 39.3796 49.7025 39.1498 49.8307 38.7922C50.0614 38.5113 50.1639 38.1027 50.1639 37.7707C50.1639 37.3366 50.0614 36.979 49.8819 36.6981C49.7025 36.4172 49.3693 36.1618 49.0104 35.9064C49.2411 35.7021 49.3693 35.5234 49.5231 35.3191C49.6256 35.1148 49.7025 34.8849 49.7025 34.5785C49.7025 34.1443 49.5743 33.7868 49.3436 33.5059C49.0873 33.2505 48.7541 33.0462 48.3952 32.9696ZM47.5237 35.5489H47.293V34.0932H47.6262C47.9082 34.0932 48.1389 34.1954 48.2158 34.2976C48.3952 34.4508 48.4465 34.5785 48.4465 34.7828C48.4465 35.0382 48.3952 35.2169 48.2158 35.3701C48.062 35.4468 47.8313 35.5489 47.5237 35.5489ZM47.293 36.7237H47.5237C47.9851 36.7237 48.3952 36.8258 48.5747 37.0046C48.8053 37.1578 48.9079 37.3877 48.9079 37.6941C48.9079 37.975 48.8053 38.2304 48.6259 38.3326C48.4465 38.4858 48.1133 38.5369 47.575 38.5369H47.293V36.7237Z" fill="white"/>
<path d="M55.47 32.8163V39.8393H59.0586V38.5113H56.7004V36.647H59.0586V35.3701H56.7004V34.0422H59.0586V32.7653H55.47V32.8163Z" fill="white"/>
<path d="M97.7389 33.6846C97.5595 33.3782 97.3288 33.1483 96.9955 32.9951C96.6623 32.8419 96.1753 32.7908 95.4319 32.7908H94.099V39.8393H95.3294V36.8003C95.9702 36.8003 96.4316 36.8003 96.6623 36.6981C97.0724 36.596 97.4057 36.3661 97.6364 36.0086C97.8671 35.7021 97.9952 35.268 97.9952 34.7828C98.0209 34.4252 97.944 34.0421 97.7389 33.6846ZM95.355 35.5489V34.0932H95.7139C96.0727 34.0932 96.3547 34.1954 96.4829 34.2465C96.7136 34.3997 96.7648 34.5784 96.7648 34.8338C96.7648 35.0381 96.7648 35.1658 96.7136 35.2169C96.611 35.3701 96.4829 35.4723 96.3803 35.4723C96.2522 35.5234 96.0215 35.5744 95.7395 35.5744H95.355V35.5489Z" fill="white"/>
<path d="M6.38264 36.3411C6.38264 35.2174 6.04941 34.298 5.33168 33.6596C4.63959 32.9701 3.81933 32.6381 2.89654 32.6381C2.33261 32.6381 1.84558 32.7402 1.33292 33.0211C0.768992 33.2765 0.358863 33.6085 0 34.0427L0.871525 34.9109C1.43545 34.2214 2.15318 33.9405 2.89654 33.9405C3.46046 33.9405 3.94749 34.0937 4.33199 34.4768C4.79338 34.8088 5.02408 35.2685 5.12661 35.7537H2.56331V36.9795H5.12661C4.94718 37.618 4.66522 38.0521 4.25509 38.3075C3.84496 38.5884 3.38357 38.7416 2.92217 38.7416C2.17881 38.7416 1.53798 38.4096 0.897158 37.7201L0.0768992 38.6395C0.589561 39.2269 1.07659 39.5589 1.51235 39.7121C1.97375 39.9164 2.43514 40.0185 2.9478 40.0185C3.99876 40.0185 4.84465 39.6865 5.48548 38.997C6.07504 38.2309 6.38264 37.3626 6.38264 36.3411Z" fill="white"/>
<path d="M16.3283 32.8163H14.7647L13.0216 35.2169V32.8163H11.74V39.8393H13.0216V36.6726L15.0467 39.8393H16.559L13.9701 35.932L16.3283 32.8163Z" fill="white"/>
<path d="M27.0941 33.6846C26.4533 32.944 25.633 32.612 24.7102 32.612C24.1207 32.612 23.4798 32.7653 22.9672 33.0973C22.4545 33.4292 21.9931 33.8889 21.6855 34.4252C21.4036 35.0126 21.2754 35.6511 21.2754 36.3406C21.2754 37.311 21.6086 38.2049 22.2494 38.9199C22.9415 39.6094 23.7105 39.9925 24.7359 39.9925C25.7099 39.9925 26.4789 39.6605 27.171 38.971C27.8118 38.2304 28.1451 37.3621 28.1451 36.3406C28.0938 35.2935 27.7862 34.4252 27.0941 33.6846ZM24.659 33.94C25.2998 33.94 25.7612 34.1954 26.2226 34.6806C26.684 35.1148 26.8634 35.7021 26.8634 36.3406C26.8634 36.979 26.684 37.5664 26.2226 38.0516C25.8124 38.4858 25.2998 38.7412 24.7102 38.7412C24.1463 38.7412 23.7105 38.5368 23.2748 38.2049C22.7621 37.7196 22.5314 37.1323 22.5314 36.3406C22.5314 35.6511 22.7108 35.0637 23.121 34.6295C23.5567 34.1699 24.0694 33.94 24.659 33.94Z" fill="white"/>
</svg>
