<svg width="80" height="80" viewBox="0 0 80 80" fill="none" xmlns="http://www.w3.org/2000/svg">
<rect width="80" height="80" rx="5" fill="#4C7589"/>
<path d="M66.25 18.625C64.6994 18.625 63.4375 17.3631 63.4375 15.8125C63.4375 14.2619 64.6994 13 66.25 13C67.8006 13 69.0625 14.2619 69.0625 15.8125C69.0625 17.3631 67.8006 18.625 66.25 18.625ZM66.25 14.875C65.7325 14.875 65.3125 15.295 65.3125 15.8125C65.3125 16.33 65.7325 16.75 66.25 16.75C66.7675 16.75 67.1875 16.33 67.1875 15.8125C67.1875 15.295 66.7675 14.875 66.25 14.875Z" fill="#FFCB05"/>
<path d="M51.7188 42.0625H47.5V39.25H51.7188C53.0106 39.25 54.0625 38.1981 54.0625 36.9062V22.375H25.9375V36.9062C25.9375 38.1981 26.9894 39.25 28.2812 39.25H32.5V42.0625H28.2812C25.4369 42.0625 23.125 39.7506 23.125 36.9062V20.9688C23.125 20.1925 23.755 19.5625 24.5312 19.5625H55.4688C56.245 19.5625 56.875 20.1925 56.875 20.9688V36.9062C56.875 39.7506 54.5631 42.0625 51.7188 42.0625Z" fill="white"/>
<path d="M33.9625 36.025L31.975 34.0375L36.6625 29.35C37.1106 28.9 37.8044 28.8081 38.3537 29.1231L40.7406 30.4881L46.0769 25.5625L47.9856 27.6306L41.8919 33.2556C41.4419 33.6719 40.7744 33.7488 40.24 33.4431L37.8925 32.1006L33.9625 36.025Z" fill="white"/>
<path d="M48.4375 32.6875H45.625V28H40.9375V25.1875H47.0312C47.8075 25.1875 48.4375 25.8175 48.4375 26.5938V32.6875Z" fill="white"/>
<path d="M55 51.4375C52.9319 51.4375 51.25 49.7556 51.25 47.6875C51.25 45.6194 52.9319 43.9375 55 43.9375C57.0681 43.9375 58.75 45.6194 58.75 47.6875C58.75 49.7556 57.0681 51.4375 55 51.4375ZM55 46.75C54.4825 46.75 54.0625 47.17 54.0625 47.6875C54.0625 48.205 54.4825 48.625 55 48.625C55.5175 48.625 55.9375 48.205 55.9375 47.6875C55.9375 47.17 55.5175 46.75 55 46.75Z" fill="white"/>
<path d="M62.5 60.8125H59.6875V58.4688C59.6875 57.1769 58.6356 56.125 57.3438 56.125H51.25V53.3125H57.3438C60.1881 53.3125 62.5 55.6244 62.5 58.4688V60.8125Z" fill="white"/>
<path d="M25 51.4375C22.9319 51.4375 21.25 49.7556 21.25 47.6875C21.25 45.6194 22.9319 43.9375 25 43.9375C27.0681 43.9375 28.75 45.6194 28.75 47.6875C28.75 49.7556 27.0681 51.4375 25 51.4375ZM25 46.75C24.4825 46.75 24.0625 47.17 24.0625 47.6875C24.0625 48.205 24.4825 48.625 25 48.625C25.5175 48.625 25.9375 48.205 25.9375 47.6875C25.9375 47.17 25.5175 46.75 25 46.75Z" fill="white"/>
<path d="M20.3125 60.8125H17.5V58.4688C17.5 55.6244 19.8119 53.3125 22.6562 53.3125H28.75V56.125H22.6562C21.3644 56.125 20.3125 57.1769 20.3125 58.4688V60.8125Z" fill="white"/>
<path d="M40 52.375C36.8987 52.375 34.375 49.8513 34.375 46.75C34.375 43.6488 36.8987 41.125 40 41.125C43.1013 41.125 45.625 43.6488 45.625 46.75C45.625 49.8513 43.1013 52.375 40 52.375ZM40 43.9375C38.4494 43.9375 37.1875 45.1994 37.1875 46.75C37.1875 48.3006 38.4494 49.5625 40 49.5625C41.5506 49.5625 42.8125 48.3006 42.8125 46.75C42.8125 45.1994 41.5506 43.9375 40 43.9375Z" fill="white"/>
<path d="M50.3125 64.5625H47.5V60.3438C47.5 59.0519 46.4481 58 45.1563 58H34.8438C33.5519 58 32.5 59.0519 32.5 60.3438V64.5625H29.6875V60.3438C29.6875 57.4994 31.9994 55.1875 34.8438 55.1875H45.1563C48.0006 55.1875 50.3125 57.4994 50.3125 60.3438V64.5625Z" fill="white"/>
<path d="M10 61.75H70V64.5625H10V61.75Z" fill="white"/>
</svg>
