<svg width="80" height="80" viewBox="0 0 80 80" fill="none" xmlns="http://www.w3.org/2000/svg">
<rect width="80" height="80" rx="5" fill="#4C7589"/>
<path d="M60.8333 60H53.3333V55H60.8333C63.13 55 65 53.13 65 50.8333V25H15V50.8333C15 53.13 16.87 55 19.1667 55H26.6667V60H19.1667C14.11 60 10 55.89 10 50.8333V22.5C10 21.12 11.12 20 12.5 20H67.5C68.88 20 70 21.12 70 22.5V50.8333C70 55.89 65.89 60 60.8333 60Z" fill="white"/>
<path d="M29.2667 49.2667L25.7333 45.7333L34.0667 37.4C34.8633 36.6 36.0967 36.4367 37.0733 36.9967L41.3167 39.4233L50.8033 30.6667L54.1967 34.3433L43.3633 44.3433C42.5633 45.0833 41.3767 45.22 40.4267 44.6767L36.2533 42.29L29.2667 49.2667Z" fill="white"/>
<path d="M55 43.3333H50V35H41.6667V30H52.5C53.88 30 55 31.12 55 32.5V43.3333Z" fill="white"/>
</svg>
