<svg width="80" height="80" viewBox="0 0 80 80" fill="none" xmlns="http://www.w3.org/2000/svg">
<rect width="80" height="80" rx="5" fill="#4C7589"/>
<path d="M56.6928 12.3259L58.0187 11L60.6703 13.6517L59.3445 14.9775L56.6928 12.3259Z" fill="#FFCB05"/>
<path d="M64.3153 19.9495L65.6411 18.6237L68.2928 21.2753L66.9669 22.6011L64.3153 19.9495Z" fill="#FFCB05"/>
<path d="M63.9857 13.6524L66.6374 11.0007L67.9632 12.3265L65.3115 14.9782L63.9857 13.6524Z" fill="#FFCB05"/>
<path d="M25 54.2948C22.9319 54.2948 21.25 52.613 21.25 50.5448C21.25 48.4767 22.9319 46.7948 25 46.7948C27.0681 46.7948 28.75 48.4767 28.75 50.5448C28.75 52.613 27.0681 54.2948 25 54.2948ZM25 49.6073C24.4825 49.6073 24.0625 50.0273 24.0625 50.5448C24.0625 51.0623 24.4825 51.4823 25 51.4823C25.5175 51.4823 25.9375 51.0623 25.9375 50.5448C25.9375 50.0273 25.5175 49.6073 25 49.6073Z" fill="white"/>
<path d="M32.5 63.6699H29.6875V61.3261C29.6875 60.0343 28.6356 58.9824 27.3438 58.9824H22.6562C21.3644 58.9824 20.3125 60.0343 20.3125 61.3261V63.6699H17.5V61.3261C17.5 58.4818 19.8119 56.1699 22.6562 56.1699H27.3438C30.1881 56.1699 32.5 58.4818 32.5 61.3261V63.6699Z" fill="white"/>
<path d="M55 54.2948C52.9319 54.2948 51.25 52.613 51.25 50.5448C51.25 48.4767 52.9319 46.7948 55 46.7948C57.0681 46.7948 58.75 48.4767 58.75 50.5448C58.75 52.613 57.0681 54.2948 55 54.2948ZM55 49.6073C54.4825 49.6073 54.0625 50.0273 54.0625 50.5448C54.0625 51.0623 54.4825 51.4823 55 51.4823C55.5175 51.4823 55.9375 51.0623 55.9375 50.5448C55.9375 50.0273 55.5175 49.6073 55 49.6073Z" fill="white"/>
<path d="M62.5 63.6699H59.6875V61.3261C59.6875 60.0343 58.6356 58.9824 57.3438 58.9824H52.6563C51.3644 58.9824 50.3125 60.0343 50.3125 61.3261V63.6699H47.5V61.3261C47.5 58.4818 49.8119 56.1699 52.6563 56.1699H57.3438C60.1881 56.1699 62.5 58.4818 62.5 61.3261V63.6699Z" fill="white"/>
<path d="M55.4688 43.0449H24.5313C21.6869 43.0449 19.375 40.733 19.375 37.8887V23.8262C19.375 20.9818 21.6869 18.6699 24.5313 18.6699H55.4688C58.3131 18.6699 60.625 20.9818 60.625 23.8262V37.8887C60.625 40.733 58.3131 43.0449 55.4688 43.0449ZM24.5313 21.4824C23.2394 21.4824 22.1875 22.5343 22.1875 23.8262V37.8887C22.1875 39.1805 23.2394 40.2324 24.5313 40.2324H55.4688C56.7606 40.2324 57.8125 39.1805 57.8125 37.8887V23.8262C57.8125 22.5343 56.7606 21.4824 55.4688 21.4824H24.5313Z" fill="white"/>
<path d="M40 33.6699C37.9319 33.6699 36.25 31.988 36.25 29.9199C36.25 27.8518 37.9319 26.1699 40 26.1699C42.0681 26.1699 43.75 27.8518 43.75 29.9199C43.75 31.988 42.0681 33.6699 40 33.6699ZM40 28.9824C39.4825 28.9824 39.0625 29.4024 39.0625 29.9199C39.0625 30.4374 39.4825 30.8574 40 30.8574C40.5175 30.8574 40.9375 30.4374 40.9375 29.9199C40.9375 29.4024 40.5175 28.9824 40 28.9824Z" fill="white"/>
<path d="M47.5 41.1699H44.6875V40.7012C44.6875 39.4093 43.6356 38.3574 42.3438 38.3574H37.6563C36.3644 38.3574 35.3125 39.4093 35.3125 40.7012V41.1699H32.5V40.7012C32.5 37.8568 34.8119 35.5449 37.6563 35.5449H42.3438C45.1881 35.5449 47.5 37.8568 47.5 40.7012V41.1699Z" fill="white"/>
<path d="M10 60.8574H70V63.6699H10V60.8574Z" fill="white"/>
</svg>
