<svg width="80" height="80" viewBox="0 0 80 80" fill="none" xmlns="http://www.w3.org/2000/svg">
<rect width="80" height="80" rx="5" fill="#4C7589"/>
<path d="M66.25 17.625C64.6994 17.625 63.4375 16.3631 63.4375 14.8125C63.4375 13.2619 64.6994 12 66.25 12C67.8006 12 69.0625 13.2619 69.0625 14.8125C69.0625 16.3631 67.8006 17.625 66.25 17.625ZM66.25 13.875C65.7344 13.875 65.3125 14.2969 65.3125 14.8125C65.3125 15.3281 65.7344 15.75 66.25 15.75C66.7656 15.75 67.1875 15.3281 67.1875 14.8125C67.1875 14.2969 66.7656 13.875 66.25 13.875Z" fill="#FFCB05"/>
<path d="M40.4687 63.5625H20.7812C18.9719 63.5625 17.5 62.0906 17.5 60.2813V46.2188C17.5 44.4094 18.9719 42.9375 20.7812 42.9375H25V38.7188C25 38.16 25.3319 37.6556 25.8419 37.4288C26.3519 37.2094 26.95 37.305 27.3606 37.6856L33.0494 42.9375H40.4687C42.2781 42.9375 43.75 44.4094 43.75 46.2188V60.2813C43.75 62.0906 42.2781 63.5625 40.4687 63.5625ZM20.7812 45.75C20.5262 45.75 20.3125 45.9638 20.3125 46.2188V60.2813C20.3125 60.5363 20.5262 60.75 20.7812 60.75H40.4687C40.7237 60.75 40.9375 60.5363 40.9375 60.2813V46.2188C40.9375 45.9638 40.7237 45.75 40.4687 45.75H32.5C32.1475 45.75 31.8062 45.6169 31.5456 45.3769L27.8125 41.9306V44.3438C27.8125 45.12 27.1825 45.75 26.4062 45.75H20.7812Z" fill="white"/>
<path d="M53.5938 44.8125C53.2469 44.8125 52.9056 44.685 52.6394 44.4394L46.9506 39.1875H39.5312C37.7219 39.1875 36.25 37.7156 36.25 35.9063V21.8438C36.25 20.0344 37.7219 18.5625 39.5312 18.5625H59.2188C61.0281 18.5625 62.5 20.0344 62.5 21.8438V35.9063C62.5 37.7156 61.0281 39.1875 59.2188 39.1875H55V43.4063C55 43.965 54.6681 44.4694 54.1581 44.6963C53.9763 44.7731 53.785 44.8125 53.5938 44.8125ZM39.5312 21.375C39.2762 21.375 39.0625 21.5888 39.0625 21.8438V35.9063C39.0625 36.1613 39.2762 36.375 39.5312 36.375H47.5C47.8525 36.375 48.1938 36.5081 48.4544 36.7481L52.1875 40.1944V37.7813C52.1875 37.005 52.8175 36.375 53.5938 36.375H59.2188C59.4738 36.375 59.6875 36.1613 59.6875 35.9063V21.8438C59.6875 21.5888 59.4738 21.375 59.2188 21.375H39.5312Z" fill="white"/>
<path d="M55 54.1875C52.9319 54.1875 51.25 52.5056 51.25 50.4375C51.25 48.3694 52.9319 46.6875 55 46.6875C57.0681 46.6875 58.75 48.3694 58.75 50.4375C58.75 52.5056 57.0681 54.1875 55 54.1875ZM55 49.5C54.4844 49.5 54.0625 49.9219 54.0625 50.4375C54.0625 50.9531 54.4844 51.375 55 51.375C55.5156 51.375 55.9375 50.9531 55.9375 50.4375C55.9375 49.9219 55.5156 49.5 55 49.5Z" fill="white"/>
<path d="M62.5 63.5625H59.6875V61.2188C59.6875 59.9269 58.6356 58.875 57.3438 58.875H52.6562C51.3644 58.875 50.3125 59.9269 50.3125 61.2188V63.5625H47.5V61.2188C47.5 58.3744 49.8119 56.0625 52.6562 56.0625H57.3438C60.1881 56.0625 62.5 58.3744 62.5 61.2188V63.5625Z" fill="white"/>
<path d="M25 26.0625C22.9319 26.0625 21.25 24.3806 21.25 22.3125C21.25 20.2444 22.9319 18.5625 25 18.5625C27.0681 18.5625 28.75 20.2444 28.75 22.3125C28.75 24.3806 27.0681 26.0625 25 26.0625ZM25 21.375C24.4844 21.375 24.0625 21.7969 24.0625 22.3125C24.0625 22.8281 24.4844 23.25 25 23.25C25.5156 23.25 25.9375 22.8281 25.9375 22.3125C25.9375 21.7969 25.5156 21.375 25 21.375Z" fill="white"/>
<path d="M32.5 35.4375H29.6875V33.0938C29.6875 31.8019 28.6356 30.75 27.3437 30.75H22.6562C21.3644 30.75 20.3125 31.8019 20.3125 33.0938V35.4375H17.5V33.0938C17.5 30.2494 19.8119 27.9375 22.6562 27.9375H27.3437C30.1881 27.9375 32.5 30.2494 32.5 33.0938V35.4375Z" fill="white"/>
<path d="M10 60.75H70V63.5625H10V60.75Z" fill="white"/>
</svg>
