<svg width="31" height="18" viewBox="0 0 31 18" fill="none" xmlns="http://www.w3.org/2000/svg">
<path fill-rule="evenodd" clip-rule="evenodd" d="M15.1737 17.5109H16.93C16.93 17.5109 17.4606 17.4526 17.7314 17.1606C17.9807 16.8926 17.9727 16.3892 17.9727 16.3892C17.9727 16.3892 17.9384 14.0325 19.0322 13.6854C20.1104 13.3436 21.495 15.9631 22.9625 16.9703C24.0723 17.7326 24.9156 17.5655 24.9156 17.5655L28.8395 17.5109C28.8395 17.5109 30.8922 17.3844 29.9189 15.7705C29.8392 15.6384 29.3521 14.5766 27.0014 12.3946C24.541 10.1109 24.8705 10.4803 27.8343 6.53C29.6393 4.12424 30.3609 2.6555 30.1355 2.02644C29.9205 1.4273 28.593 1.58566 28.593 1.58566L24.1748 1.61318C24.1748 1.61318 23.8473 1.56851 23.6044 1.7137C23.367 1.85611 23.2143 2.188 23.2143 2.188C23.2143 2.188 22.515 4.04965 21.5824 5.63287C19.615 8.97364 18.8284 9.14996 18.5069 8.94253C17.7589 8.45907 17.9456 7.0003 17.9456 5.96396C17.9456 2.72651 18.4367 1.37664 16.9895 1.0272C16.5092 0.911124 16.1558 0.834535 14.9276 0.822169C13.3511 0.805815 12.0168 0.826956 11.2613 1.19713C10.7587 1.44325 10.3709 1.99174 10.6071 2.02325C10.8991 2.06234 11.5605 2.20156 11.9111 2.67904C12.3638 3.29494 12.3479 4.67831 12.3479 4.67831C12.3479 4.67831 12.608 8.48938 11.7404 8.96287C11.1448 9.28758 10.3279 8.62461 8.57391 5.59378C7.67519 4.04127 6.99667 2.32521 6.99667 2.32521C6.99667 2.32521 6.86583 2.0045 6.63247 1.83297C6.34926 1.62515 5.95355 1.55893 5.95355 1.55893L1.75515 1.58646C1.75515 1.58646 1.12489 1.60401 0.89353 1.87805C0.687698 2.12178 0.877175 2.62598 0.877175 2.62598C0.877175 2.62598 4.16409 10.3159 7.88581 14.1912C11.2984 17.7442 15.1737 17.5109 15.1737 17.5109Z" fill="white"/>
</svg>
